<svg xmlns="http://www.w3.org/2000/svg" xmlns:xlink="http://www.w3.org/1999/xlink" width="100" zoomAndPan="magnify" viewBox="0 0 75 74.999997" height="100" preserveAspectRatio="xMidYMid meet" version="1.0"><defs><g/><clipPath id="d678ffff27"><path d="M 73 1 L 74.851562 1 L 74.851562 71 L 73 71 Z M 73 1 " clip-rule="nonzero"/></clipPath></defs><path fill="#000000" d="M 1.300781 1.300781 L 3.886719 1.300781 L 3.886719 70.300781 L 1.300781 70.300781 Z M 1.300781 1.300781 " fill-opacity="1" fill-rule="nonzero"/><path fill="#000000" d="M 1.300781 1.300781 L 23.726562 1.300781 L 23.726562 3.886719 L 1.300781 3.886719 Z M 1.300781 1.300781 " fill-opacity="1" fill-rule="nonzero"/><path fill="#000000" d="M 1.300781 67.710938 L 23.726562 67.710938 L 23.726562 70.300781 L 1.300781 70.300781 Z M 1.300781 67.710938 " fill-opacity="1" fill-rule="nonzero"/><path fill="#000000" d="M 8.199219 9.925781 L 9.925781 9.925781 L 9.925781 61.675781 L 8.199219 61.675781 Z M 8.199219 9.925781 " fill-opacity="1" fill-rule="nonzero"/><path fill="#000000" d="M 8.199219 9.925781 L 23.726562 9.925781 L 23.726562 11.648438 L 8.199219 11.648438 Z M 8.199219 9.925781 " fill-opacity="1" fill-rule="nonzero"/><path fill="#000000" d="M 8.199219 59.949219 L 23.726562 59.949219 L 23.726562 61.675781 L 8.199219 61.675781 Z M 8.199219 59.949219 " fill-opacity="1" fill-rule="nonzero"/><path fill="#000000" d="M 66.851562 9.925781 L 68.574219 9.925781 L 68.574219 61.675781 L 66.851562 61.675781 Z M 66.851562 9.925781 " fill-opacity="1" fill-rule="nonzero"/><path fill="#000000" d="M 51.324219 9.925781 L 66.851562 9.925781 L 66.851562 11.648438 L 51.324219 11.648438 Z M 51.324219 9.925781 " fill-opacity="1" fill-rule="nonzero"/><path fill="#000000" d="M 51.324219 59.949219 L 66.851562 59.949219 L 66.851562 61.675781 L 51.324219 61.675781 Z M 51.324219 59.949219 " fill-opacity="1" fill-rule="nonzero"/><g clip-path="url(#d678ffff27)"><path fill="#000000" d="M 73.75 1.300781 L 76.335938 1.300781 L 76.335938 70.300781 L 73.75 70.300781 Z M 73.75 1.300781 " fill-opacity="1" fill-rule="nonzero"/></g><path fill="#000000" d="M 51.324219 1.300781 L 73.75 1.300781 L 73.75 3.886719 L 51.324219 3.886719 Z M 51.324219 1.300781 " fill-opacity="1" fill-rule="nonzero"/><path fill="#000000" d="M 51.324219 67.710938 L 73.75 67.710938 L 73.75 70.300781 L 51.324219 70.300781 Z M 51.324219 67.710938 " fill-opacity="1" fill-rule="nonzero"/><g fill="#000000" fill-opacity="1"><g transform="translate(21.953854, 45.685087)"><g><path d="M 9.703125 -1.109375 L 9.703125 0 L 0.421875 0 L 0.421875 -1.109375 L 3.625 -1.6875 L 13.25 -28.46875 L 17.25 -28.46875 L 27.25 -1.6875 L 30.828125 -1.109375 L 30.828125 0 L 18.890625 0 L 18.890625 -1.109375 L 22.671875 -1.6875 L 19.875 -9.828125 L 8.765625 -9.828125 L 5.921875 -1.6875 Z M 14.234375 -25.4375 L 9.390625 -11.734375 L 19.21875 -11.734375 Z M 14.234375 -25.4375 "/></g></g></g></svg>